<?xml version="1.0" encoding="UTF-8"?>
<svg width="24" height="24" viewBox="0 0 24 24" fill="none" xmlns="http://www.w3.org/2000/svg">
  <!-- Leaf -->
  <path d="M17 8C8 10 5 16 4 22h2c0.5-4 2-8 6-11v7c0 3 2 4 3 4s3-1 3-4v-9c3-1 5-3 5-6h-2c-1 2-2 3-4 4v-3c0-2-1-4-3-4S11 2 11 4v4z" stroke="#1E40AF" stroke-width="1.5" fill="none"/>
  <!-- Gear -->
  <circle cx="7" cy="13" r="2" stroke="#1E40AF" stroke-width="1.5" fill="none"/>
  <path d="M11.43 16.98c.04-.32.07-.64.07-.98s-.03-.66-.07-.98l1.11-1.65c.19-.15.24-.42.12-.64l-1-2.46c-.12-.22-.39-.3-.61-.22l-1.49.6c-.52-.4-1.08-.73-1.69-.98l-.38-1.65C7.46 7.18 7.25 7 7 7c-.25 0-.46.18-.49.42l-.38 1.65c-.61.25-1.17.59-1.69.98l-1.49-.6c-.23-.09-.49 0-.61.22l-1 2.46c-.13.22-.07.49.12.64l1.11 1.65c-.04.32-.07.65-.07.98s.03.66.07.98l-1.11 1.65c-.19.15-.24.42-.12.64l1 2.46c.12.22.39.3.61.22l1.49-.6c.52.4 1.08.73 1.69.98l.38 1.65c.03.24.24.42.49.42.25 0 .46-.18.49-.42l.38-1.65c.61-.25 1.17-.59 1.69-.98l1.49.6c.23.09.49 0 .61-.22l1-2.46c.12-.22.07-.49-.12-.64l-1.11-1.65z" stroke="#1E40AF" stroke-width="1.5" fill="none"/>
</svg> 