<?xml version="1.0" encoding="UTF-8"?>
<svg width="24" height="24" viewBox="0 0 24 24" fill="none" xmlns="http://www.w3.org/2000/svg">
  <!-- Rocket -->
  <path d="M12 2.5s-4 2.5-4 7.5v3l-2 2v3h12v-3l-2-2v-3c0-5-4-7.5-4-7.5z" stroke="#1E40AF" stroke-width="1.5" fill="none"/>
  <path d="M10 20h4" stroke="#1E40AF" stroke-width="1.5" fill="none"/>
  <!-- Stars -->
  <path d="M5 3l1 2 2 1-2 1-1 2-1-2-2-1 2-1 1-2z" stroke="#1E40AF" stroke-width="1" fill="none"/>
  <path d="M19 3l1 2 2 1-2 1-1 2-1-2-2-1 2-1 1-2z" stroke="#1E40AF" stroke-width="1" fill="none"/>
  <path d="M12 7l.5 1 1 .5-1 .5-.5 1-.5-1-1-.5 1-.5.5-1z" stroke="#1E40AF" stroke-width="1" fill="none"/>
</svg> 